<mxfile host="app.diagrams.net" modified="2021-05-11T07:44:33.993Z" agent="5.0 (Macintosh; Intel Mac OS X 10_15_7) AppleWebKit/605.1.15 (KHTML, like Gecko) Version/14.1 Safari/605.1.15" etag="xK9sYcensTn0ZaAPa0eT" version="14.4.9" type="github">
  <diagram id="XQJYIQVNsMdnsp_lDfg-" name="Page-1">
    <mxGraphModel dx="1529" dy="1090" grid="1" gridSize="10" guides="1" tooltips="1" connect="1" arrows="1" fold="1" page="1" pageScale="1" pageWidth="1169" pageHeight="1654" math="0" shadow="0">
      <root>
        <mxCell id="0" />
        <mxCell id="1" parent="0" />
        <mxCell id="NA8dyWezGqw_GzaktqeJ-1" value="Arduino 1" style="rounded=1;whiteSpace=wrap;html=1;" vertex="1" parent="1">
          <mxGeometry x="450" y="560" width="160" height="80" as="geometry" />
        </mxCell>
        <mxCell id="NA8dyWezGqw_GzaktqeJ-15" style="edgeStyle=orthogonalEdgeStyle;shape=link;rounded=0;orthogonalLoop=1;jettySize=auto;html=1;strokeColor=#000000;" edge="1" parent="1" source="NA8dyWezGqw_GzaktqeJ-2" target="NA8dyWezGqw_GzaktqeJ-1">
          <mxGeometry relative="1" as="geometry">
            <Array as="points">
              <mxPoint x="460" y="290" />
            </Array>
          </mxGeometry>
        </mxCell>
        <mxCell id="NA8dyWezGqw_GzaktqeJ-16" value="&amp;nbsp;AB&amp;nbsp;" style="edgeLabel;html=1;align=center;verticalAlign=middle;resizable=0;points=[];" vertex="1" connectable="0" parent="NA8dyWezGqw_GzaktqeJ-15">
          <mxGeometry x="0.35" y="1" relative="1" as="geometry">
            <mxPoint as="offset" />
          </mxGeometry>
        </mxCell>
        <mxCell id="NA8dyWezGqw_GzaktqeJ-17" value="AUF&amp;nbsp;" style="edgeStyle=orthogonalEdgeStyle;shape=link;rounded=0;orthogonalLoop=1;jettySize=auto;html=1;strokeColor=#000000;" edge="1" parent="1" source="NA8dyWezGqw_GzaktqeJ-2" target="NA8dyWezGqw_GzaktqeJ-1">
          <mxGeometry relative="1" as="geometry">
            <Array as="points">
              <mxPoint x="510" y="270" />
            </Array>
          </mxGeometry>
        </mxCell>
        <mxCell id="NA8dyWezGqw_GzaktqeJ-2" value="Torantrieb 6" style="rounded=0;whiteSpace=wrap;html=1;" vertex="1" parent="1">
          <mxGeometry x="40" y="160" width="200" height="120" as="geometry" />
        </mxCell>
        <mxCell id="NA8dyWezGqw_GzaktqeJ-6" value="" style="group" vertex="1" connectable="0" parent="1">
          <mxGeometry x="1030" y="10" width="40" height="40" as="geometry" />
        </mxCell>
        <mxCell id="NA8dyWezGqw_GzaktqeJ-4" value="" style="whiteSpace=wrap;html=1;aspect=fixed;" vertex="1" parent="NA8dyWezGqw_GzaktqeJ-6">
          <mxGeometry width="40" height="40" as="geometry" />
        </mxCell>
        <mxCell id="NA8dyWezGqw_GzaktqeJ-5" value="" style="whiteSpace=wrap;html=1;aspect=fixed;connectable=0;allowArrows=0;" vertex="1" parent="NA8dyWezGqw_GzaktqeJ-6">
          <mxGeometry x="10" y="10" width="20" height="20" as="geometry" />
        </mxCell>
        <mxCell id="NA8dyWezGqw_GzaktqeJ-7" value="&amp;nbsp;AUF / AB&amp;nbsp;" style="edgeStyle=orthogonalEdgeStyle;rounded=0;orthogonalLoop=1;jettySize=auto;html=1;shape=link;exitX=0;exitY=0.5;exitDx=0;exitDy=0;" edge="1" parent="1" source="NA8dyWezGqw_GzaktqeJ-4" target="NA8dyWezGqw_GzaktqeJ-2">
          <mxGeometry relative="1" as="geometry">
            <mxPoint x="800" y="20" as="sourcePoint" />
          </mxGeometry>
        </mxCell>
        <mxCell id="NA8dyWezGqw_GzaktqeJ-12" value="&amp;nbsp;SCHLIESSER &amp;nbsp;" style="edgeStyle=orthogonalEdgeStyle;shape=link;rounded=0;orthogonalLoop=1;jettySize=auto;html=1;strokeColor=#000000;" edge="1" parent="1" source="NA8dyWezGqw_GzaktqeJ-43" target="NA8dyWezGqw_GzaktqeJ-1">
          <mxGeometry relative="1" as="geometry">
            <mxPoint x="980" y="180" as="sourcePoint" />
            <Array as="points">
              <mxPoint x="975" y="120" />
              <mxPoint x="560" y="120" />
            </Array>
          </mxGeometry>
        </mxCell>
        <mxCell id="NA8dyWezGqw_GzaktqeJ-21" value="Torantrieb 5" style="rounded=0;whiteSpace=wrap;html=1;" vertex="1" parent="1">
          <mxGeometry x="40" y="560" width="200" height="120" as="geometry" />
        </mxCell>
        <mxCell id="NA8dyWezGqw_GzaktqeJ-22" value="Torantrieb 4" style="rounded=0;whiteSpace=wrap;html=1;" vertex="1" parent="1">
          <mxGeometry x="40" y="960" width="200" height="120" as="geometry" />
        </mxCell>
        <mxCell id="NA8dyWezGqw_GzaktqeJ-23" value="Torantrieb 3" style="rounded=0;whiteSpace=wrap;html=1;" vertex="1" parent="1">
          <mxGeometry x="40" y="1360" width="200" height="120" as="geometry" />
        </mxCell>
        <mxCell id="NA8dyWezGqw_GzaktqeJ-44" value="" style="group" vertex="1" connectable="0" parent="1">
          <mxGeometry x="1080" y="50" width="30" height="40" as="geometry" />
        </mxCell>
        <mxCell id="NA8dyWezGqw_GzaktqeJ-43" value="" style="rounded=0;whiteSpace=wrap;html=1;strokeColor=none;" vertex="1" parent="NA8dyWezGqw_GzaktqeJ-44">
          <mxGeometry width="30" height="40" as="geometry" />
        </mxCell>
        <mxCell id="NA8dyWezGqw_GzaktqeJ-9" value="" style="rounded=0;whiteSpace=wrap;html=1;connectable=0;allowArrows=0;" vertex="1" parent="NA8dyWezGqw_GzaktqeJ-44">
          <mxGeometry width="10" height="40" as="geometry" />
        </mxCell>
        <mxCell id="NA8dyWezGqw_GzaktqeJ-10" value="" style="rounded=0;whiteSpace=wrap;html=1;allowArrows=0;connectable=0;" vertex="1" parent="NA8dyWezGqw_GzaktqeJ-44">
          <mxGeometry x="20" width="10" height="40" as="geometry" />
        </mxCell>
        <mxCell id="NA8dyWezGqw_GzaktqeJ-45" value="" style="group" vertex="1" connectable="0" parent="1">
          <mxGeometry x="1080" y="750" width="30" height="40" as="geometry" />
        </mxCell>
        <mxCell id="NA8dyWezGqw_GzaktqeJ-46" value="" style="rounded=0;whiteSpace=wrap;html=1;strokeColor=none;" vertex="1" parent="NA8dyWezGqw_GzaktqeJ-45">
          <mxGeometry width="30" height="40" as="geometry" />
        </mxCell>
        <mxCell id="NA8dyWezGqw_GzaktqeJ-47" value="" style="rounded=0;whiteSpace=wrap;html=1;connectable=0;allowArrows=0;" vertex="1" parent="NA8dyWezGqw_GzaktqeJ-45">
          <mxGeometry width="10" height="40" as="geometry" />
        </mxCell>
        <mxCell id="NA8dyWezGqw_GzaktqeJ-48" value="" style="rounded=0;whiteSpace=wrap;html=1;allowArrows=0;connectable=0;" vertex="1" parent="NA8dyWezGqw_GzaktqeJ-45">
          <mxGeometry x="20" width="10" height="40" as="geometry" />
        </mxCell>
        <mxCell id="NA8dyWezGqw_GzaktqeJ-49" style="edgeStyle=orthogonalEdgeStyle;shape=link;rounded=0;orthogonalLoop=1;jettySize=auto;html=1;strokeColor=#000000;" edge="1" parent="1" source="NA8dyWezGqw_GzaktqeJ-46" target="NA8dyWezGqw_GzaktqeJ-1">
          <mxGeometry relative="1" as="geometry">
            <Array as="points">
              <mxPoint x="510" y="770" />
            </Array>
          </mxGeometry>
        </mxCell>
        <mxCell id="NA8dyWezGqw_GzaktqeJ-50" value="" style="rounded=0;whiteSpace=wrap;html=1;strokeColor=#666666;fillColor=#f5f5f5;fontColor=#333333;" vertex="1" parent="1">
          <mxGeometry x="1120" y="40" width="20" height="360" as="geometry" />
        </mxCell>
        <mxCell id="NA8dyWezGqw_GzaktqeJ-52" value="" style="rounded=0;whiteSpace=wrap;html=1;strokeColor=#666666;fillColor=#f5f5f5;fontColor=#333333;" vertex="1" parent="1">
          <mxGeometry x="1080" width="60" height="40" as="geometry" />
        </mxCell>
        <mxCell id="NA8dyWezGqw_GzaktqeJ-53" value="" style="rounded=0;whiteSpace=wrap;html=1;strokeColor=#666666;fillColor=#f5f5f5;fontColor=#333333;" vertex="1" parent="1">
          <mxGeometry x="1080" y="400" width="60" height="40" as="geometry" />
        </mxCell>
        <mxCell id="NA8dyWezGqw_GzaktqeJ-54" value="" style="rounded=0;whiteSpace=wrap;html=1;strokeColor=#000000;" vertex="1" parent="1">
          <mxGeometry x="1080" y="1200" width="60" height="40" as="geometry" />
        </mxCell>
        <mxCell id="NA8dyWezGqw_GzaktqeJ-55" value="" style="rounded=0;whiteSpace=wrap;html=1;strokeColor=#000000;" vertex="1" parent="1">
          <mxGeometry x="1080" y="800" width="60" height="40" as="geometry" />
        </mxCell>
        <mxCell id="NA8dyWezGqw_GzaktqeJ-56" value="" style="rounded=0;whiteSpace=wrap;html=1;strokeColor=#000000;" vertex="1" parent="1">
          <mxGeometry x="1080" y="1600" width="60" height="40" as="geometry" />
        </mxCell>
        <mxCell id="NA8dyWezGqw_GzaktqeJ-57" value="" style="rounded=0;whiteSpace=wrap;html=1;strokeColor=#666666;fillColor=#f5f5f5;fontColor=#333333;" vertex="1" parent="1">
          <mxGeometry x="1120" y="440" width="20" height="360" as="geometry" />
        </mxCell>
        <mxCell id="NA8dyWezGqw_GzaktqeJ-58" value="" style="rounded=0;whiteSpace=wrap;html=1;strokeColor=#666666;fillColor=#f5f5f5;fontColor=#333333;" vertex="1" parent="1">
          <mxGeometry x="1120" y="840" width="20" height="360" as="geometry" />
        </mxCell>
        <mxCell id="NA8dyWezGqw_GzaktqeJ-59" value="" style="rounded=0;whiteSpace=wrap;html=1;strokeColor=#666666;fillColor=#f5f5f5;fontColor=#333333;" vertex="1" parent="1">
          <mxGeometry x="1120" y="1240" width="20" height="360" as="geometry" />
        </mxCell>
        <mxCell id="NA8dyWezGqw_GzaktqeJ-60" value="" style="group" vertex="1" connectable="0" parent="1">
          <mxGeometry x="1030" y="780" width="40" height="40" as="geometry" />
        </mxCell>
        <mxCell id="NA8dyWezGqw_GzaktqeJ-61" value="" style="whiteSpace=wrap;html=1;aspect=fixed;" vertex="1" parent="NA8dyWezGqw_GzaktqeJ-60">
          <mxGeometry width="40" height="40" as="geometry" />
        </mxCell>
        <mxCell id="NA8dyWezGqw_GzaktqeJ-62" value="" style="whiteSpace=wrap;html=1;aspect=fixed;connectable=0;allowArrows=0;" vertex="1" parent="NA8dyWezGqw_GzaktqeJ-60">
          <mxGeometry x="10" y="10" width="20" height="20" as="geometry" />
        </mxCell>
        <mxCell id="NA8dyWezGqw_GzaktqeJ-63" value="" style="group" vertex="1" connectable="0" parent="1">
          <mxGeometry x="1030" y="820" width="40" height="40" as="geometry" />
        </mxCell>
        <mxCell id="NA8dyWezGqw_GzaktqeJ-64" value="" style="whiteSpace=wrap;html=1;aspect=fixed;" vertex="1" parent="NA8dyWezGqw_GzaktqeJ-63">
          <mxGeometry width="40" height="40" as="geometry" />
        </mxCell>
        <mxCell id="NA8dyWezGqw_GzaktqeJ-65" value="" style="whiteSpace=wrap;html=1;aspect=fixed;connectable=0;allowArrows=0;" vertex="1" parent="NA8dyWezGqw_GzaktqeJ-63">
          <mxGeometry x="10" y="10" width="20" height="20" as="geometry" />
        </mxCell>
      </root>
    </mxGraphModel>
  </diagram>
</mxfile>
